<svg width="90" height="90" viewBox="0 0 90 90" fill="none" xmlns="http://www.w3.org/2000/svg">
<path d="M45 0.399994C20.1 0.399994 0 6.09999 0 13.1L0.4 16.3C0.6 17.5 1.1 18.6 2 19.5C5.2 22.5 15.2 28.2 45 28.2C74.8 28.2 84.9 22 88.2 18.7C89.1 17.8 89.7 16.5 89.8 15.2L90 13.1C90 6.09999 69.9 0.399994 45 0.399994Z" fill="white"/>
<path d="M45.4 29.9C12.7 29.9 6.10001 23.5 6.10001 23.5V25.5C6.10001 27.4 7.10001 29.1 8.80001 29.9C13 32.1 23 36.1 45 36.1C67.1 36.1 77.1 32.1 81.3 30C82.9 29.2 83.9 27.5 83.9 25.7V23.6C83.9 23.5 78.2 29.9 45.4 29.9Z" fill="white"/>
<path d="M36.7 52.7C36.1 56.5 40.3 60.4 44.5 60.5H45.4C49.7 60.4 53.8 56.4 53.2 52.7C52.7 49.6 51.5 45.4 51.1 42.5C51 42.1 51.1 41.6 51.2 41.2L51.4 40.5C51.5 40.4 51.6 40.2 51.7 40.1C52.5 39.6 53.1 38.8 53.1 37.8C51.3 38 47.5 38.3 44.8 38.3C42.3 38.3 38.6 38 36.5 37.8C36.5 38.7 37.1 39.5 37.9 40C38 40.1 38.1 40.3 38.3 40.4L38.5 41C38.7 41.5 38.7 42 38.6 42.6C38.4 45.5 37.2 49.6 36.7 52.7Z" fill="white"/>
<path d="M36.7 74.7C35.8 80.7 29.7 85.6 29.7 85.6C29.7 85.6 29.2 85.5 28.6 85.5C28 85.5 27.3 85.6 26.8 85.9C25.7 86.5 25.8 89.4 25.8 89.4C26.3 89.5 26.9 89.6 27.4 89.6C33.3 89.6 37.1 81 38.5 78.9C40 76.7 41.8 76.2 41.8 76.2V67.6V66.7C37.9 68.2 37.5 68.7 36.7 74.7Z" fill="white"/>
<path d="M54.3 63.9H55.5C55.8 63.9 56 64 56.3 64.1L58.2 65.3C58.2 65.3 58.2 58.4 52 59.5C52 59.4 54.4 60.4 54.3 63.9Z" fill="white"/>
<path d="M67.9 70.9C67.9 70.9 67.6 69.1 65.5 69.2C64.8 69.2 64.4 69.4 64.1 69.7C63.2 70.5 61.8 70.7 60.9 69.9C60.8 69.9 60.8 69.8 60.8 69.8C60.8 69.8 61.8 73 62.4 73.7C62.3 73.6 68.8 74.4 67.9 70.9Z" fill="white"/>
<path d="M32 67.8C33.1 65.3 35.4 64.5 35.4 64.5C34.4 61.5 37.6 59.2 37.6 59.2C37.6 59.2 35.9 58.1 33.1 59.7C30.3 61.3 27.3 69.2 25.7 69.8C24.8 70.1 24 69.9 23.4 69.6C22.9 69.3 22.2 69.4 21.7 69.7L20.7 70.3C20 70.7 19.6 71.5 19.8 72.3C20 73.4 20.9 74.8 24.3 74.8C30.3 74.9 31 70.3 32 67.8Z" fill="white"/>
<path d="M26.2 84.9C26.8 84.5 27.6 84.4 28.6 84.4C28.9 84.4 29.1 84.4 29.3 84.4C30.6 83.3 34.8 79.2 35.5 74.5C36.3 68.7 36.9 67.4 40.2 66L37 65.4C37 65.4 33.2 66.3 32.6 70C32 73.7 31.9 78.6 25.8 83.3L25 83C24.7 82.9 24.3 82.8 24 82.8C23 82.8 22 83.3 21.5 84.3C21.3 84.6 21.2 84.9 21.1 85.2C20.7 86.5 21.4 87.8 22.6 88.3L24.6 89.2C24.5 88.2 24.7 85.8 26.2 84.9Z" fill="white"/>
<path d="M69.5 82.4L69.7 82.3C69.6 82.3 69.5 82.4 69.5 82.4Z" fill="white"/>
<path d="M67.9 85.2C67.4 84.9 66.7 84.8 66.1 84.8C65.5 84.8 65 84.9 65 84.9C65 84.9 58.4 80.1 56.8 74.6C55.1 68.7 54.4 68.1 50.6 66.6V67.5V76.1C50.6 76.1 52.4 76.5 53.9 78.8C55.3 80.8 61 88.9 67.2 88.9C67.8 88.9 68.3 88.8 68.9 88.7C68.9 88.7 69.1 85.9 67.9 85.2Z" fill="white"/>
<path d="M53 63.4C53 62.5 52.6 61.8 51.9 61.3L50.9 60.6C50.9 60.6 50.9 60.6 50.8 60.6C50.8 60.6 50.7 60.6 50.6 60.7C49.8 61 47.5 61.9 45 62C42.5 61.9 40.2 61 39.4 60.6C39.3 60.5 39.2 60.5 39.2 60.5H39.1L38.1 61.2C37.4 61.7 37 62.5 37 63.3V64.2C37.1 64.2 37.2 64.2 37.2 64.2L41.8 65.1C42.3 65.2 42.7 65.7 42.8 66.2C42.8 66.3 42.8 66.4 42.8 66.5C42.8 66.6 42.8 66.6 42.8 66.7V67.6V76.2C42.8 76.3 42.8 76.3 42.8 76.4C43.4 76.5 44 76.5 44.7 76.6C44.8 76.6 44.9 76.6 45 76.6C45.1 76.6 45.2 76.6 45.3 76.6C47 76.5 48.4 76.3 49.4 75.9V67.5V66.6C49.4 66.5 49.4 66.5 49.4 66.4C49.4 66.3 49.4 66.2 49.4 66.1C49.4 65.5 49.8 65.1 50.4 65L52.9 64.5V63.4H53Z" fill="white"/>
<path d="M72.6 83.6C72 82.5 71 82.3 70.3 82.3C69.9 82.3 69.6 82.4 69.5 82.4L68.9 82.6C62.8 77.9 60.9 74.2 59.7 69.9C58.7 66.3 55.3 65.3 55.3 65.3L52.1 65.9C55.5 67.4 56.4 68.8 58 74.3C59.3 78.7 64 82.7 65.4 83.7C65.6 83.7 65.9 83.7 66.2 83.7C67.2 83.7 68 83.9 68.6 84.2C70.1 85 70.2 87.4 70.2 88.5L71.6 87.6C72.8 87.1 73.4 85.7 73.1 84.5C72.9 84.1 72.8 83.8 72.6 83.6Z" fill="white"/>
</svg>
